<?xml version="1.0" encoding="UTF-8" standalone="no"?>
<svg
   xmlns:dc="http://purl.org/dc/elements/1.1/"
   xmlns:cc="http://creativecommons.org/ns#"
   xmlns:rdf="http://www.w3.org/1999/02/22-rdf-syntax-ns#"
   xmlns:svg="http://www.w3.org/2000/svg"
   xmlns="http://www.w3.org/2000/svg"
   xmlns:xlink="http://www.w3.org/1999/xlink"
   xmlns:sodipodi="http://sodipodi.sourceforge.net/DTD/sodipodi-0.dtd"
   xmlns:inkscape="http://www.inkscape.org/namespaces/inkscape"
   width="32"
   height="32"
   version="1.1"
   id="svg12"
   sodipodi:docname="start.svg"
   inkscape:version="1.0 (4035a4fb49, 2020-05-01)">
  <metadata
     id="metadata16">
    <rdf:RDF>
      <cc:Work
         rdf:about="">
        <dc:format>image/svg+xml</dc:format>
        <dc:type
           rdf:resource="http://purl.org/dc/dcmitype/StillImage" />
        <dc:title />
      </cc:Work>
    </rdf:RDF>
  </metadata>
  <sodipodi:namedview
     pagecolor="#c8c8c8"
     bordercolor="#666666"
     borderopacity="1"
     objecttolerance="10"
     gridtolerance="10"
     guidetolerance="10"
     inkscape:pageopacity="0"
     inkscape:pageshadow="2"
     inkscape:window-width="1920"
     inkscape:window-height="1013"
     id="namedview14"
     showgrid="true"
     inkscape:zoom="5.6568541"
     inkscape:cx="23.151018"
     inkscape:cy="5.2082828"
     inkscape:window-x="0"
     inkscape:window-y="0"
     inkscape:window-maximized="1"
     inkscape:current-layer="svg12"
     inkscape:snap-bbox="true"
     inkscape:bbox-nodes="true"
     inkscape:snap-bbox-edge-midpoints="true"
     inkscape:snap-nodes="true"
     inkscape:document-rotation="0">
    <inkscape:grid
       type="xygrid"
       id="grid4539" />
  </sodipodi:namedview>
  <defs
     id="defs7386">
    <linearGradient
       id="linearGradient971"
       inkscape:collect="always">
      <stop
         id="stop967"
         offset="0"
         style="stop-color:#b79410;stop-opacity:1" />
      <stop
         style="stop-color:#ac8c02;stop-opacity:1"
         offset="0.25601417"
         id="stop975" />
      <stop
         id="stop977"
         offset="0.51883465"
         style="stop-color:#fecc02;stop-opacity:1" />
      <stop
         id="stop969"
         offset="1"
         style="stop-color:#8f7305;stop-opacity:1" />
    </linearGradient>
    <linearGradient
       id="linearGradient957"
       inkscape:collect="always">
      <stop
         id="stop953"
         offset="0"
         style="stop-color:#4070f9;stop-opacity:1" />
      <stop
         style="stop-color:#9fb5ff;stop-opacity:1"
         offset="0.43808231"
         id="stop961" />
      <stop
         id="stop963"
         offset="0.849002"
         style="stop-color:#3648da;stop-opacity:1" />
      <stop
         id="stop955"
         offset="1"
         style="stop-color:#111caf;stop-opacity:1" />
    </linearGradient>
    <linearGradient
       id="linearGradient947"
       inkscape:collect="always">
      <stop
         id="stop943"
         offset="0"
         style="stop-color:#6c8d18;stop-opacity:1" />
      <stop
         style="stop-color:#5a7901;stop-opacity:1"
         offset="0.1641801"
         id="stop965" />
      <stop
         style="stop-color:#82c605;stop-opacity:1"
         offset="0.46983302"
         id="stop951" />
      <stop
         id="stop945"
         offset="1"
         style="stop-color:#446310;stop-opacity:1" />
    </linearGradient>
    <linearGradient
       id="linearGradient933"
       inkscape:collect="always">
      <stop
         id="stop929"
         offset="0"
         style="stop-color:#f2650b;stop-opacity:1" />
      <stop
         style="stop-color:#fca75f;stop-opacity:1"
         offset="0.28571427"
         id="stop937" />
      <stop
         id="stop941"
         offset="0.64786869"
         style="stop-color:#e55000;stop-opacity:1" />
      <stop
         id="stop931"
         offset="1"
         style="stop-color:#a92201;stop-opacity:1" />
    </linearGradient>
    <linearGradient
       inkscape:collect="always"
       id="linearGradient897">
      <stop
         style="stop-color:#e16400;stop-opacity:1"
         offset="0"
         id="stop893" />
      <stop
         id="stop891"
         offset="0.5"
         style="stop-color:#781e00;stop-opacity:1" />
      <stop
         id="stop889"
         offset="0.5"
         style="stop-color:#a03200;stop-opacity:1" />
      <stop
         style="stop-color:#ff7300;stop-opacity:1"
         offset="1"
         id="stop895" />
    </linearGradient>
    <linearGradient
       id="linearGradient925"
       inkscape:collect="always">
      <stop
         id="stop921"
         offset="0"
         style="stop-color:#e0a000;stop-opacity:1" />
      <stop
         id="stop923"
         offset="1"
         style="stop-color:#ffcd56;stop-opacity:1" />
    </linearGradient>
    <linearGradient
       id="linearGradient917"
       inkscape:collect="always">
      <stop
         id="stop913"
         offset="0"
         style="stop-color:#008ccc;stop-opacity:1" />
      <stop
         id="stop915"
         offset="1"
         style="stop-color:#0fb2ff;stop-opacity:1" />
    </linearGradient>
    <linearGradient
       id="linearGradient909"
       inkscape:collect="always">
      <stop
         id="stop905"
         offset="0"
         style="stop-color:#699801;stop-opacity:1" />
      <stop
         id="stop907"
         offset="1"
         style="stop-color:#a2e501;stop-opacity:1" />
    </linearGradient>
    <linearGradient
       id="linearGradient901"
       inkscape:collect="always">
      <stop
         id="stop897"
         offset="0"
         style="stop-color:#f43a0b;stop-opacity:1" />
      <stop
         id="stop899"
         offset="1"
         style="stop-color:#f6a088;stop-opacity:1" />
    </linearGradient>
    <style
       id="current-color-scheme"
       type="text/css">
   .ColorScheme-Text { color:#dedede; } .ColorScheme-Highlight { color:#5294e2; } .ColorScheme-ButtonBackground { color:#dedede; }
  </style>
    <linearGradient
       id="linearGradient8660"
       x1="-7.6728001"
       x2="-5.027"
       y1="-29.104"
       y2="-27.252001"
       gradientTransform="matrix(3.3620413,0,0,3.3620413,56.979969,79.985673)"
       gradientUnits="userSpaceOnUse">
      <stop
         stop-color="#00bffb"
         offset="0"
         id="stop17" />
      <stop
         stop-color="#01a0f3"
         offset="1"
         id="stop19" />
    </linearGradient>
    <linearGradient
       id="linearGradient8668"
       x1="-4.7624002"
       x2="-1.852"
       y1="-27.252001"
       y2="-30.122999"
       gradientTransform="matrix(3.5258028,0,0,3.3620413,57.757906,79.985673)"
       gradientUnits="userSpaceOnUse">
      <stop
         stop-color="#11c2f4"
         offset="0"
         id="stop12" />
      <stop
         stop-color="#2dc5f4"
         offset="1"
         id="stop14" />
    </linearGradient>
    <linearGradient
       id="linearGradient8676"
       x1="-7.6728001"
       x2="-5.027"
       y1="-26.722"
       y2="-24.493"
       gradientTransform="matrix(3.3620413,0,0,3.3620413,56.979969,79.985673)"
       gradientUnits="userSpaceOnUse">
      <stop
         stop-color="#0954a8"
         offset="0"
         id="stop7" />
      <stop
         stop-color="#0954a8"
         offset="1"
         id="stop9" />
    </linearGradient>
    <linearGradient
       id="linearGradient8684"
       x1="-4.4977999"
       x2="-1.852"
       y1="-26.722"
       y2="-24.111"
       gradientTransform="matrix(3.5258028,0,0,3.3620413,57.757906,79.985673)"
       gradientUnits="userSpaceOnUse">
      <stop
         stop-color="#339ed9"
         offset="0"
         id="stop2" />
      <stop
         stop-color="#2386c9"
         offset="1"
         id="stop4" />
    </linearGradient>
    <linearGradient
       gradientUnits="userSpaceOnUse"
       y2="44.000759"
       x2="48.708332"
       y1="39.491066"
       x1="42.527824"
       id="linearGradient944"
       xlink:href="#linearGradient901"
       inkscape:collect="always" />
    <linearGradient
       gradientUnits="userSpaceOnUse"
       y2="44"
       x2="49.5"
       y1="37.491066"
       x1="57.527824"
       id="linearGradient952"
       xlink:href="#linearGradient909"
       inkscape:collect="always" />
    <linearGradient
       gradientUnits="userSpaceOnUse"
       y2="45"
       x2="48.708332"
       y1="49.491066"
       x1="42.527824"
       id="linearGradient960"
       xlink:href="#linearGradient917"
       inkscape:collect="always" />
    <linearGradient
       gradientUnits="userSpaceOnUse"
       y2="45"
       x2="49.5"
       y1="50.491066"
       x1="56.527824"
       id="linearGradient968"
       xlink:href="#linearGradient925"
       inkscape:collect="always" />
    <linearGradient
       inkscape:collect="always"
       xlink:href="#linearGradient897"
       id="linearGradient899"
       x1="16"
       y1="32"
       x2="16"
       y2="0"
       gradientUnits="userSpaceOnUse" />
    <style
       type="text/css"
       id="style891" />
    <linearGradient
       gradientUnits="userSpaceOnUse"
       y2="35.89056"
       x2="45.468868"
       y1="33.745155"
       x1="38"
       id="linearGradient935"
       xlink:href="#linearGradient933"
       inkscape:collect="always" />
    <linearGradient
       gradientUnits="userSpaceOnUse"
       y2="38"
       x2="55"
       y1="35"
       x1="45.475636"
       id="linearGradient949"
       xlink:href="#linearGradient947"
       inkscape:collect="always" />
    <linearGradient
       gradientUnits="userSpaceOnUse"
       y2="43"
       x2="43"
       y1="41"
       x1="35"
       id="linearGradient959"
       xlink:href="#linearGradient957"
       inkscape:collect="always" />
    <linearGradient
       gradientUnits="userSpaceOnUse"
       y2="45"
       x2="52"
       y1="43"
       x1="43"
       id="linearGradient973"
       xlink:href="#linearGradient971"
       inkscape:collect="always" />
    <filter
       height="1.1025819"
       y="-0.051290951"
       width="1.0902118"
       x="-0.045105897"
       id="filter1023"
       style="color-interpolation-filters:sRGB"
       inkscape:collect="always">
      <feGaussianBlur
         id="feGaussianBlur1025"
         stdDeviation="0.37588097"
         inkscape:collect="always" />
    </filter>
    <linearGradient
       y2="35.89056"
       x2="45.468868"
       y1="33.745155"
       x1="38"
       gradientUnits="userSpaceOnUse"
       id="linearGradient1103"
       xlink:href="#linearGradient933"
       inkscape:collect="always" />
    <linearGradient
       y2="38"
       x2="55"
       y1="35"
       x1="45.475636"
       gradientUnits="userSpaceOnUse"
       id="linearGradient1105"
       xlink:href="#linearGradient947"
       inkscape:collect="always" />
    <linearGradient
       y2="43"
       x2="43"
       y1="41"
       x1="35"
       gradientUnits="userSpaceOnUse"
       id="linearGradient1107"
       xlink:href="#linearGradient957"
       inkscape:collect="always" />
    <linearGradient
       y2="45"
       x2="52"
       y1="43"
       x1="43"
       gradientUnits="userSpaceOnUse"
       id="linearGradient1109"
       xlink:href="#linearGradient971"
       inkscape:collect="always" />
  </defs>
  <g
     transform="translate(-70.972176,-2)"
     id="22"
     inkscape:label="22-22-start-here-kde">
    <circle
       r="11"
       cy="21"
       cx="49.972176"
       id="path822"
       style="opacity:0;fill:#ffffff;fill-opacity:1;stroke:none;stroke-width:1.24874;stroke-linecap:round;stroke-linejoin:round;stroke-miterlimit:4;stroke-dasharray:none;stroke-opacity:1;paint-order:normal" />
    <g
       transform="translate(0.4721756,-23.491067)"
       id="g935">
      <path
         inkscape:connector-curvature="0"
         id="path909"
         d="m 40,37.822225 8.708333,-1.096591 v 7.275124 H 40 Z"
         style="fill:url(#linearGradient944);fill-opacity:1;stroke-width:0.247776" />
      <path
         style="fill:url(#linearGradient952);fill-opacity:1;stroke-width:0.258785"
         inkscape:connector-curvature="0"
         id="path911"
         d="M 49.5,36.618148 59,35.399167 V 44 h -9.5 z" />
      <path
         inkscape:connector-curvature="0"
         id="path913"
         d="m 40,45 h 8.708333 v 7.264601 L 40,51.178508 Z"
         style="fill:url(#linearGradient960);fill-opacity:1;stroke-width:0.247776" />
      <path
         style="fill:url(#linearGradient968);fill-opacity:1;stroke-width:0.258785"
         inkscape:connector-curvature="0"
         id="path915"
         d="M 49.5,45 H 59 v 8.582968 L 49.5,52.36127 Z" />
    </g>
  </g>
  <g
     id="start-here-kde">
    <rect
       style="fill:url(#linearGradient899);fill-opacity:1;stroke-width:3"
       id="rect885"
       width="32"
       height="32"
       x="0"
       y="0"
       ry="0" />
    <rect
       style="color:#bebebe;display:inline;overflow:visible;visibility:visible;fill:none;stroke:none;stroke-width:1;marker:none"
       id="rect6336-6"
       width="32"
       height="32"
       x="0"
       y="0" />
    <g
       transform="translate(-28.09655,-21.993672)"
       id="g1021"
       style="opacity:0.4;fill:#000000;fill-opacity:1;filter:url(#filter1023)">
      <path
         id="path1013"
         p-id="2380"
         d="m 41.48233,36.568506 c 1.16538,0.143162 2.09077,0.635595 2.84554,1.110494 0.62429,-2.155756 1.24275,-4.312878 1.87241,-6.466125 -0.89914,-0.571998 -1.81806,-1.067991 -2.8949,-1.175167 -1.41742,-0.16925 -2.8938,0.255712 -4.19025,0.786192 -0.63172,2.160167 -1.25063,4.324723 -1.87516,6.486794 1.33792,-0.524545 2.79404,-0.920396 4.24236,-0.742188"
         style="fill:#000000;fill-opacity:1;stroke-width:0.0223935"
         sodipodi:nodetypes="ccccccc" />
      <path
         style="fill:#000000;fill-opacity:1;stroke-width:0.0223935"
         d="m 54.99599,32.451589 c -0.005,-0.0035 -0.009,-0.0079 -0.0131,-0.01187 C 52.3717,33.49985 49.79895,33.6109 47.3751,32 c -0.11105,0.382481 -0.21296,0.671716 -0.2779,0.896233 -0.21411,0.740867 -0.42817,1.482115 -0.64225,2.223317 l -0.98608,3.414115 c 2.36969,1.532007 5.05883,1.61381 7.62768,0.460007 L 55,32.454992 l -0.004,-0.0034"
         p-id="2380"
         id="path1015"
         sodipodi:nodetypes="ccccccccc" />
      <path
         id="path1017"
         p-id="2380"
         d="M 43.95009,39.073572 C 42.99393,38.487758 42.07943,37.993264 40.93167,37.903466 39.52908,37.792887 38.13029,38.2144 36.84586,38.73852 l -1.84578,6.45869 c 2.47424,-0.945117 4.75629,-1.054218 7.04598,0.398202 l 1.905,-6.521258 c -3e-5,0 -4.6e-4,-5.73e-4 -9.2e-4,-5.73e-4"
         style="fill:#000000;fill-opacity:1;stroke-width:0.0223935"
         sodipodi:nodetypes="ccccccc" />
      <path
         style="fill:#000000;fill-opacity:1;stroke-width:0.0223935"
         d="m 49.03756,41.125162 c -1.73601,0 -2.91711,-0.61147 -3.92939,-1.28512 -0.005,0.006 -0.0129,0.0109 -0.0184,0.0148 l -1.8753,6.49121 c 2.37739,1.57534 5.06873,1.56101 7.6541,0.46939 l 1.81851,-6.34462 -0.0163,0.004 c -1.37095,0.45849 -2.57301,0.64995 -3.6333,0.64995"
         p-id="2380"
         id="path1019"
         sodipodi:nodetypes="cccccccc" />
    </g>
    <g
       id="g983"
       transform="translate(-29.00004,-22.794088)">
      <path
         sodipodi:nodetypes="ccccccc"
         style="fill:url(#linearGradient935);fill-opacity:1;stroke-width:0.0223935"
         d="m 41.48233,36.568506 c 1.16538,0.143162 2.09077,0.635595 2.84554,1.110494 0.62429,-2.155756 1.24275,-4.312878 1.87241,-6.466125 -0.89914,-0.571998 -1.81806,-1.067991 -2.8949,-1.175167 -1.41742,-0.16925 -2.8938,0.255712 -4.19025,0.786192 -0.63172,2.160167 -1.25063,4.324723 -1.87516,6.486794 1.33792,-0.524545 2.79404,-0.920396 4.24236,-0.742188"
         p-id="2380"
         id="path895" />
      <path
         sodipodi:nodetypes="ccccccccc"
         id="path923"
         p-id="2380"
         d="m 54.99599,32.451589 c -0.005,-0.0035 -0.009,-0.0079 -0.0131,-0.01187 C 52.3717,33.49985 49.79895,33.6109 47.3751,32 c -0.11105,0.382481 -0.21296,0.671716 -0.2779,0.896233 -0.21411,0.740867 -0.42817,1.482115 -0.64225,2.223317 l -0.98608,3.414115 c 2.36969,1.532007 5.05883,1.61381 7.62768,0.460007 L 55,32.454992 l -0.004,-0.0034"
         style="fill:url(#linearGradient949);fill-opacity:1;stroke-width:0.0223935" />
      <path
         sodipodi:nodetypes="ccccccc"
         style="fill:url(#linearGradient959);fill-opacity:1;stroke-width:0.0223935"
         d="M 43.95009,39.073572 C 42.99393,38.487758 42.07943,37.993264 40.93167,37.903466 39.52908,37.792887 38.13029,38.2144 36.84586,38.73852 l -1.84578,6.45869 c 2.47424,-0.945117 4.75629,-1.054218 7.04598,0.398202 l 1.905,-6.521258 c -3e-5,0 -4.6e-4,-5.73e-4 -9.2e-4,-5.73e-4"
         p-id="2380"
         id="path925" />
      <path
         sodipodi:nodetypes="cccccccc"
         id="path927"
         p-id="2380"
         d="m 49.03756,41.125162 c -1.73601,0 -2.91711,-0.61147 -3.92939,-1.28512 -0.005,0.006 -0.0129,0.0109 -0.0184,0.0148 l -1.8753,6.49121 c 2.37739,1.57534 5.06873,1.56101 7.6541,0.46939 l 1.81851,-6.34462 -0.0163,0.004 c -1.37095,0.45849 -2.57301,0.64995 -3.6333,0.64995"
         style="fill:url(#linearGradient973);fill-opacity:1;stroke-width:0.0223935" />
    </g>
  </g>
  <g
     id="22-22-start-here-kde">
    <circle
       style="opacity:0;fill:#ffffff;fill-opacity:1;stroke:none;stroke-width:1.24874;stroke-linecap:round;stroke-linejoin:round;stroke-miterlimit:4;stroke-dasharray:none;stroke-opacity:1;paint-order:normal"
       id="circle1047"
       cx="51"
       cy="19"
       r="11" />
    <g
       transform="translate(5.99996,-19.794088)"
       id="g1097">
      <path
         id="path1089"
         p-id="2380"
         d="m 41.48233,36.568506 c 1.16538,0.143162 2.09077,0.635595 2.84554,1.110494 0.62429,-2.155756 1.24275,-4.312878 1.87241,-6.466125 -0.89914,-0.571998 -1.81806,-1.067991 -2.8949,-1.175167 -1.41742,-0.16925 -2.8938,0.255712 -4.19025,0.786192 -0.63172,2.160167 -1.25063,4.324723 -1.87516,6.486794 1.33792,-0.524545 2.79404,-0.920396 4.24236,-0.742188"
         style="fill:url(#linearGradient1103);fill-opacity:1;stroke-width:0.0223935"
         sodipodi:nodetypes="ccccccc" />
      <path
         style="fill:url(#linearGradient1105);fill-opacity:1;stroke-width:0.0223935"
         d="m 54.99599,32.451589 c -0.005,-0.0035 -0.009,-0.0079 -0.0131,-0.01187 C 52.3717,33.49985 49.79895,33.6109 47.3751,32 c -0.11105,0.382481 -0.21296,0.671716 -0.2779,0.896233 -0.21411,0.740867 -0.42817,1.482115 -0.64225,2.223317 l -0.98608,3.414115 c 2.36969,1.532007 5.05883,1.61381 7.62768,0.460007 L 55,32.454992 l -0.004,-0.0034"
         p-id="2380"
         id="path1091"
         sodipodi:nodetypes="ccccccccc" />
      <path
         id="path1093"
         p-id="2380"
         d="M 43.95009,39.073572 C 42.99393,38.487758 42.07943,37.993264 40.93167,37.903466 39.52908,37.792887 38.13029,38.2144 36.84586,38.73852 l -1.84578,6.45869 c 2.47424,-0.945117 4.75629,-1.054218 7.04598,0.398202 l 1.905,-6.521258 c -3e-5,0 -4.6e-4,-5.73e-4 -9.2e-4,-5.73e-4"
         style="fill:url(#linearGradient1107);fill-opacity:1;stroke-width:0.0223935"
         sodipodi:nodetypes="ccccccc" />
      <path
         style="fill:url(#linearGradient1109);fill-opacity:1;stroke-width:0.0223935"
         d="m 49.03756,41.125162 c -1.73601,0 -2.91711,-0.61147 -3.92939,-1.28512 -0.005,0.006 -0.0129,0.0109 -0.0184,0.0148 l -1.8753,6.49121 c 2.37739,1.57534 5.06873,1.56101 7.6541,0.46939 l 1.81851,-6.34462 -0.0163,0.004 c -1.37095,0.45849 -2.57301,0.64995 -3.6333,0.64995"
         p-id="2380"
         id="path1095"
         sodipodi:nodetypes="cccccccc" />
    </g>
  </g>
</svg>
